# Blender v2.79 (sub 0) OBJ File: ''
# www.blender.org
o Icosphere_Icosphere.001
v 0.000000 -1.000000 0.000000
v 0.723607 -0.447220 0.525725
v -0.276388 -0.447220 0.850649
v -0.894426 -0.447216 0.000000
v -0.276388 -0.447220 -0.850649
v 0.723607 -0.447220 -0.525725
v 0.276388 0.447220 0.850649
v -0.723607 0.447220 0.525725
v -0.723607 0.447220 -0.525725
v 0.276388 0.447220 -0.850649
v 0.894426 0.447216 0.000000
v 0.000000 1.000000 0.000000
v -0.232822 -0.657519 0.716563
v -0.162456 -0.850654 0.499995
v -0.077607 -0.967950 0.238853
v 0.203181 -0.967950 0.147618
v 0.425323 -0.850654 0.309011
v 0.609547 -0.657519 0.442856
v 0.531941 -0.502302 0.681712
v 0.262869 -0.525738 0.809012
v -0.029639 -0.502302 0.864184
v 0.812729 -0.502301 -0.295238
v 0.850648 -0.525736 0.000000
v 0.812729 -0.502301 0.295238
v 0.203181 -0.967950 -0.147618
v 0.425323 -0.850654 -0.309011
v 0.609547 -0.657519 -0.442856
v -0.753442 -0.657515 0.000000
v -0.525730 -0.850652 0.000000
v -0.251147 -0.967949 0.000000
v -0.483971 -0.502302 0.716565
v -0.688189 -0.525736 0.499997
v -0.831051 -0.502299 0.238853
v -0.232822 -0.657519 -0.716563
v -0.162456 -0.850654 -0.499995
v -0.077607 -0.967950 -0.238853
v -0.831051 -0.502299 -0.238853
v -0.688189 -0.525736 -0.499997
v -0.483971 -0.502302 -0.716565
v -0.029639 -0.502302 -0.864184
v 0.262869 -0.525738 -0.809012
v 0.531941 -0.502302 -0.681712
v 0.956626 0.251149 0.147618
v 0.951058 -0.000000 0.309013
v 0.860698 -0.251151 0.442858
v 0.860698 -0.251151 -0.442858
v 0.951058 0.000000 -0.309013
v 0.956626 0.251149 -0.147618
v 0.155215 0.251152 0.955422
v 0.000000 -0.000000 1.000000
v -0.155215 -0.251152 0.955422
v 0.687159 -0.251152 0.681715
v 0.587786 0.000000 0.809017
v 0.436007 0.251152 0.864188
v -0.860698 0.251151 0.442858
v -0.951058 -0.000000 0.309013
v -0.956626 -0.251149 0.147618
v -0.436007 -0.251152 0.864188
v -0.587786 0.000000 0.809017
v -0.687159 0.251152 0.681715
v -0.687159 0.251152 -0.681715
v -0.587786 -0.000000 -0.809017
v -0.436007 -0.251152 -0.864188
v -0.956626 -0.251149 -0.147618
v -0.951058 0.000000 -0.309013
v -0.860698 0.251151 -0.442858
v 0.436007 0.251152 -0.864188
v 0.587786 -0.000000 -0.809017
v 0.687159 -0.251152 -0.681715
v -0.155215 -0.251152 -0.955422
v 0.000000 0.000000 -1.000000
v 0.155215 0.251152 -0.955422
v 0.831051 0.502299 0.238853
v 0.688189 0.525736 0.499997
v 0.483971 0.502302 0.716565
v 0.029639 0.502302 0.864184
v -0.262869 0.525738 0.809012
v -0.531941 0.502302 0.681712
v -0.812729 0.502301 0.295238
v -0.850648 0.525736 0.000000
v -0.812729 0.502301 -0.295238
v -0.531941 0.502302 -0.681712
v -0.262869 0.525738 -0.809012
v 0.029639 0.502302 -0.864184
v 0.483971 0.502302 -0.716565
v 0.688189 0.525736 -0.499997
v 0.831051 0.502299 -0.238853
v 0.077607 0.967950 0.238853
v 0.162456 0.850654 0.499995
v 0.232822 0.657519 0.716563
v 0.753442 0.657515 0.000000
v 0.525730 0.850652 0.000000
v 0.251147 0.967949 0.000000
v -0.203181 0.967950 0.147618
v -0.425323 0.850654 0.309011
v -0.609547 0.657519 0.442856
v -0.203181 0.967950 -0.147618
v -0.425323 0.850654 -0.309011
v -0.609547 0.657519 -0.442856
v 0.077607 0.967950 -0.238853
v 0.162456 0.850654 -0.499995
v 0.232822 0.657519 -0.716563
v 0.361800 0.894429 -0.262863
v 0.638194 0.723610 -0.262864
v 0.447209 0.723612 -0.525728
v -0.138197 0.894430 -0.425319
v -0.052790 0.723612 -0.688185
v -0.361804 0.723612 -0.587778
v -0.447210 0.894429 0.000000
v -0.670817 0.723611 -0.162457
v -0.670817 0.723611 0.162457
v -0.138197 0.894430 0.425319
v -0.361804 0.723612 0.587778
v -0.052790 0.723612 0.688185
v 0.361800 0.894429 0.262863
v 0.447209 0.723612 0.525728
v 0.638194 0.723610 0.262864
v 0.861804 0.276396 -0.425322
v 0.809019 0.000000 -0.587782
v 0.670821 0.276397 -0.688189
v -0.138199 0.276397 -0.951055
v -0.309016 -0.000000 -0.951057
v -0.447215 0.276397 -0.850649
v -0.947213 0.276396 -0.162458
v -1.000000 0.000001 0.000000
v -0.947213 0.276397 0.162458
v -0.447216 0.276397 0.850648
v -0.309017 -0.000001 0.951056
v -0.138199 0.276397 0.951055
v 0.670820 0.276396 0.688190
v 0.809019 -0.000002 0.587783
v 0.861804 0.276394 0.425323
v 0.309017 -0.000000 -0.951056
v 0.447216 -0.276398 -0.850648
v 0.138199 -0.276398 -0.951055
v -0.809018 -0.000000 -0.587783
v -0.670819 -0.276397 -0.688191
v -0.861803 -0.276396 -0.425324
v -0.809018 0.000000 0.587783
v -0.861803 -0.276396 0.425324
v -0.670819 -0.276397 0.688191
v 0.309017 0.000000 0.951056
v 0.138199 -0.276398 0.951055
v 0.447216 -0.276398 0.850648
v 1.000000 0.000000 0.000000
v 0.947213 -0.276396 0.162458
v 0.947213 -0.276396 -0.162458
v 0.361803 -0.723612 -0.587779
v 0.138197 -0.894429 -0.425321
v 0.052789 -0.723611 -0.688186
v -0.447211 -0.723612 -0.525727
v -0.361801 -0.894429 -0.262863
v -0.638195 -0.723609 -0.262863
v -0.638195 -0.723609 0.262864
v -0.361801 -0.894428 0.262864
v -0.447211 -0.723610 0.525729
v 0.670817 -0.723611 -0.162457
v 0.670818 -0.723610 0.162458
v 0.447211 -0.894428 0.000001
v 0.052790 -0.723612 0.688185
v 0.138199 -0.894429 0.425321
v 0.361805 -0.723611 0.587779
vt 0.791893 0.102447
vt 0.861827 0.120900
vt 0.809633 0.188481
vt 0.171043 0.346040
vt 0.151785 0.268624
vt 0.198046 0.283945
vt 0.749162 0.169047
vt 0.713345 0.074947
vt 0.832378 0.019306
vt 0.201636 0.388511
vt 0.034281 0.485689
vt 0.063355 0.445856
vt 0.057117 0.549360
vt 0.692023 0.442811
vt 0.724625 0.447828
vt 0.700833 0.529322
vt 0.551406 0.264984
vt 0.590139 0.287779
vt 0.556637 0.354025
vt 0.343755 0.184913
vt 0.395092 0.154905
vt 0.374268 0.252619
vt 0.166810 0.435246
vt 0.019409 0.565577
vt 0.665350 0.493915
vt 0.517908 0.311481
vt 0.326358 0.267978
vt 0.152162 0.735015
vt 0.190895 0.712221
vt 0.175370 0.812310
vt 0.742999 0.815087
vt 0.794336 0.845095
vt 0.729155 0.902755
vt 0.570287 0.653960
vt 0.597291 0.716054
vt 0.551029 0.731376
vt 0.433525 0.514310
vt 0.462600 0.554144
vt 0.428420 0.603121
vt 0.292779 0.557189
vt 0.325381 0.552171
vt 0.304669 0.641303
vt 0.349918 0.830953
vt 0.410389 0.811519
vt 0.392649 0.897552
vt 0.322359 0.738745
vt 0.373454 0.736450
vt 0.345481 0.642015
vt 0.421218 0.707715
vt 0.389858 0.627822
vt 0.363634 0.541977
vt 0.401583 0.528069
vt 0.462583 0.879099
vt 0.462592 0.774413
vt 0.462596 0.658832
vt 0.518152 0.815307
vt 0.506106 0.706782
vt 0.498238 0.597300
vt 0.536155 0.632749
vt 0.433134 0.980693
vt 0.545146 0.920323
vt 0.582117 0.816197
vt 0.664236 0.997736
vt 0.643117 0.887675
vt 0.638243 0.776692
vt 0.691777 0.812735
vt 0.314101 0.925052
vt 1.000000 1.000000
vt 0.826537 0.942673
vt 0.201511 1.000000
vt 0.223768 0.890005
vt 0.028049 0.942673
vt 0.132584 0.895953
vt 0.861858 0.839676
vt 0.063369 0.839676
vt 0.118597 0.793462
vt 0.286847 0.826639
vt 0.228739 0.779027
vt 0.273724 0.714018
vt 0.231267 0.667910
vt 0.266162 0.611027
vt 0.301589 0.470678
vt 0.312560 0.368768
vt 0.338915 0.454467
vt 0.355147 0.347287
vt 0.380573 0.441147
vt 0.399244 0.341446
vt 0.418654 0.434422
vt 0.456362 0.450639
vt 0.484954 0.377776
vt 0.491671 0.487521
vt 0.524302 0.414875
vt 0.530386 0.529228
vt 0.561512 0.459361
vt 0.566055 0.564753
vt 0.600881 0.611489
vt 0.633943 0.554416
vt 0.635740 0.665574
vt 0.671699 0.597133
vt 0.680139 0.710758
vt 0.711804 0.631231
vt 0.725602 0.732021
vt 0.773513 0.747380
vt 0.798488 0.658554
vt 0.823006 0.754336
vt 0.043812 0.647845
vt 0.000000 0.658554
vt 0.024517 0.754336
vt 0.077250 0.731572
vt 0.085710 0.622223
vt 0.118664 0.688518
vt 0.157392 0.645975
vt 0.162268 0.540638
vt 0.194819 0.607989
vt 0.198385 0.492821
vt 0.233072 0.556751
vt 0.234699 0.445584
vt 0.266105 0.506084
vt 0.443057 0.352154
vt 0.423761 0.245664
vt 0.476494 0.268428
vt 0.462613 0.160324
vt 0.517841 0.206537
vt 0.597630 0.507178
vt 0.594063 0.392010
vt 0.632317 0.443247
vt 0.630511 0.332090
vt 0.665406 0.388972
vt 0.754391 0.652713
vt 0.738160 0.545533
vt 0.779818 0.558853
vt 0.817898 0.565577
vt 0.762878 0.458023
vt 0.800827 0.471930
vt 0.002339 0.471930
vt 0.125058 0.585124
vt 0.092427 0.512478
vt 0.131142 0.470772
vt 0.098994 0.402699
vt 0.136911 0.367250
vt 0.272455 0.402866
vt 0.236496 0.334426
vt 0.280895 0.289241
vt 0.238998 0.223308
vt 0.292533 0.187265
vt 0.329911 0.097245
vt 0.264992 0.002264
vt 0.427293 0.057327
vt 0.600754 0.000000
vt 0.531828 0.104047
vt 0.623013 0.109994
vt 0.574615 0.187689
vt 0.627983 0.220973
vt 0.686091 0.173361
vt 0.672968 0.285982
vt 0.721603 0.261255
vt 0.703913 0.358696
vt 0.744725 0.357985
vt 0.772699 0.263551
vt 0.789102 0.372178
vt 0.820463 0.292285
vt 0.827664 0.396878
vt 0.029176 0.396878
vt 0.243873 0.112324
vt 0.182873 0.183803
vt 0.145902 0.079676
vt 0.033890 0.019306
vt 0.118908 0.184693
vt 0.063339 0.120900
vt 0.021974 0.292285
vt 0.063352 0.341168
vt 0.011144 0.188481
vt 0.063348 0.225587
vt 0.106862 0.293218
vn 0.0000 -1.0000 0.0000
vn 0.2109 -0.9654 0.1533
vn -0.0806 -0.9654 0.2480
vn 0.7236 -0.4472 0.5257
vn 0.6042 -0.6650 0.4390
vn 0.8152 -0.5038 0.2857
vn -0.2608 -0.9654 0.0000
vn -0.0806 -0.9654 -0.2480
vn 0.2109 -0.9654 -0.1533
vn 0.8650 -0.2430 0.4390
vn -0.2764 -0.4472 0.8506
vn -0.0198 -0.5038 0.8636
vn -0.1502 -0.2430 0.9583
vn -0.8944 -0.4472 0.0000
vn -0.8274 -0.5038 0.2480
vn -0.9578 -0.2430 0.1533
vn -0.2764 -0.4472 -0.8506
vn -0.4915 -0.5038 -0.7103
vn -0.4417 -0.2430 -0.8636
vn 0.7236 -0.4472 -0.5257
vn 0.5236 -0.5038 -0.6870
vn 0.6848 -0.2430 -0.6870
vn 0.6848 -0.2430 0.6870
vn -0.4417 -0.2430 0.8636
vn -0.9578 -0.2430 -0.1533
vn -0.1502 -0.2430 -0.9583
vn 0.8650 -0.2430 -0.4390
vn 0.2764 0.4472 0.8506
vn 0.4915 0.5038 0.7103
vn 0.2308 0.6650 0.7103
vn -0.7236 0.4472 0.5257
vn -0.5236 0.5038 0.6870
vn -0.6042 0.6650 0.4390
vn -0.7236 0.4472 -0.5257
vn -0.8152 0.5038 -0.2857
vn -0.6042 0.6650 -0.4390
vn 0.2764 0.4472 -0.8506
vn 0.0198 0.5038 -0.8636
vn 0.2308 0.6650 -0.7103
vn 0.8944 0.4472 0.0000
vn 0.8274 0.5038 -0.2480
vn 0.7468 0.6650 0.0000
vn 0.2608 0.9654 0.0000
vn 0.0806 0.9654 -0.2480
vn 0.0000 1.0000 0.0000
vn 0.5257 0.8506 0.0000
vn 0.3682 0.8904 -0.2675
vn 0.6317 0.7275 -0.2675
vn 0.1625 0.8506 -0.5000
vn 0.4496 0.7275 -0.5181
vn 0.6882 0.5257 -0.5000
vn 0.4915 0.5038 -0.7103
vn -0.2109 0.9654 -0.1533
vn -0.1406 0.8904 -0.4328
vn -0.0592 0.7275 -0.6835
vn -0.4253 0.8506 -0.3090
vn -0.3538 0.7275 -0.5877
vn -0.2629 0.5257 -0.8090
vn -0.5236 0.5038 -0.6870
vn -0.2109 0.9654 0.1533
vn -0.4551 0.8904 0.0000
vn -0.6683 0.7275 -0.1549
vn -0.4253 0.8506 0.3090
vn -0.6683 0.7275 0.1549
vn -0.8506 0.5257 0.0000
vn -0.8152 0.5038 0.2857
vn 0.0806 0.9654 0.2480
vn -0.1406 0.8904 0.4328
vn -0.3538 0.7275 0.5877
vn 0.1625 0.8506 0.5000
vn -0.0592 0.7275 0.6835
vn -0.2629 0.5257 0.8090
vn 0.0198 0.5038 0.8636
vn 0.3682 0.8904 0.2675
vn 0.4496 0.7275 0.5181
vn 0.6317 0.7275 0.2675
vn 0.6882 0.5257 0.5000
vn 0.8274 0.5038 0.2480
vn 0.9578 0.2430 -0.1533
vn 0.9510 0.0000 -0.3090
vn 0.8593 0.2724 -0.4328
vn 0.8090 0.0089 -0.5878
vn 0.6772 0.2724 -0.6835
vn 0.5878 0.0000 -0.8090
vn 0.4417 0.2430 -0.8636
vn 0.1502 0.2430 -0.9583
vn 0.0000 0.0000 -1.0000
vn -0.1461 0.2724 -0.9510
vn -0.3090 0.0089 -0.9510
vn -0.4407 0.2724 -0.8553
vn -0.5878 0.0000 -0.8090
vn -0.6848 0.2430 -0.6870
vn -0.8650 0.2430 -0.4390
vn -0.9510 0.0000 -0.3090
vn -0.9496 0.2724 -0.1549
vn -0.9999 0.0089 0.0000
vn -0.9496 0.2724 0.1549
vn -0.9510 0.0000 0.3090
vn -0.8650 0.2430 0.4390
vn -0.6848 0.2430 0.6870
vn -0.5878 0.0000 0.8090
vn -0.4407 0.2724 0.8553
vn -0.3090 0.0089 0.9510
vn -0.1461 0.2724 0.9510
vn 0.0000 0.0000 1.0000
vn 0.1502 0.2430 0.9583
vn 0.4417 0.2430 0.8636
vn 0.5878 0.0000 0.8090
vn 0.6772 0.2724 0.6835
vn 0.8090 0.0089 0.5878
vn 0.8593 0.2724 0.4328
vn 0.9510 0.0000 0.3090
vn 0.9578 0.2430 0.1533
vn 0.3090 -0.0089 -0.9510
vn 0.4407 -0.2724 -0.8553
vn 0.1461 -0.2724 -0.9510
vn 0.2629 -0.5257 -0.8090
vn -0.0198 -0.5038 -0.8636
vn -0.8090 -0.0089 -0.5878
vn -0.6772 -0.2724 -0.6835
vn -0.8593 -0.2724 -0.4328
vn -0.6882 -0.5257 -0.5000
vn -0.8274 -0.5038 -0.2480
vn -0.8090 -0.0089 0.5878
vn -0.8593 -0.2724 0.4328
vn -0.6772 -0.2724 0.6835
vn -0.6882 -0.5257 0.5000
vn -0.4915 -0.5038 0.7103
vn 0.3090 -0.0089 0.9510
vn 0.1461 -0.2724 0.9510
vn 0.4407 -0.2724 0.8553
vn 0.2629 -0.5257 0.8090
vn 0.5236 -0.5038 0.6870
vn 0.9999 -0.0089 0.0000
vn 0.9496 -0.2724 0.1549
vn 0.9496 -0.2724 -0.1549
vn 0.8506 -0.5257 0.0000
vn 0.8152 -0.5038 -0.2857
vn 0.6042 -0.6650 -0.4390
vn 0.4253 -0.8506 -0.3090
vn 0.3538 -0.7275 -0.5878
vn 0.1406 -0.8904 -0.4328
vn 0.0592 -0.7275 -0.6835
vn -0.1625 -0.8506 -0.5000
vn -0.2308 -0.6650 -0.7103
vn -0.4496 -0.7275 -0.5181
vn -0.3682 -0.8904 -0.2675
vn -0.6317 -0.7275 -0.2675
vn -0.5257 -0.8506 0.0000
vn -0.7468 -0.6650 0.0000
vn -0.6317 -0.7275 0.2675
vn -0.3682 -0.8904 0.2675
vn -0.4496 -0.7275 0.5181
vn -0.1625 -0.8506 0.5000
vn -0.2308 -0.6650 0.7103
vn 0.6683 -0.7275 -0.1549
vn 0.6683 -0.7275 0.1549
vn 0.4551 -0.8904 0.0000
vn 0.4253 -0.8506 0.3090
vn 0.0592 -0.7275 0.6835
vn 0.1406 -0.8904 0.4328
vn 0.3538 -0.7275 0.5878
s 1
f 1/1/1 16/2/2 15/3/3
f 2/4/4 18/5/5 24/6/6
f 1/1/1 15/3/3 30/7/7
f 1/1/1 30/7/7 36/8/8
f 1/1/1 36/8/8 25/9/9
f 2/4/4 24/6/6 45/10/10
f 3/11/11 21/12/12 51/13/13
f 4/14/14 33/15/15 57/16/16
f 5/17/17 39/18/18 63/19/19
f 6/20/20 42/21/21 69/22/22
f 2/4/4 45/10/10 52/23/23
f 3/11/11 51/13/13 58/24/24
f 4/14/14 57/16/16 64/25/25
f 5/17/17 63/19/19 70/26/26
f 6/20/20 69/22/22 46/27/27
f 7/28/28 75/29/29 90/30/30
f 8/31/31 78/32/32 96/33/33
f 9/34/34 81/35/35 99/36/36
f 10/37/37 84/38/38 102/39/39
f 11/40/40 87/41/41 91/42/42
f 93/43/43 100/44/44 12/45/45
f 92/46/46 103/47/47 93/43/43
f 91/42/42 104/48/48 92/46/46
f 93/43/43 103/47/47 100/44/44
f 103/47/47 101/49/49 100/44/44
f 92/46/46 104/48/48 103/47/47
f 104/48/48 105/50/50 103/47/47
f 103/47/47 105/50/50 101/49/49
f 105/50/50 102/39/39 101/49/49
f 91/42/42 87/41/41 104/48/48
f 87/41/41 86/51/51 104/48/48
f 104/48/48 86/51/51 105/50/50
f 86/51/51 85/52/52 105/50/50
f 105/50/50 85/52/52 102/39/39
f 85/52/52 10/37/37 102/39/39
f 100/44/44 97/53/53 12/45/45
f 101/49/49 106/54/54 100/44/44
f 102/39/39 107/55/55 101/49/49
f 100/44/44 106/54/54 97/53/53
f 106/54/54 98/56/56 97/53/53
f 101/49/49 107/55/55 106/54/54
f 107/55/55 108/57/57 106/54/54
f 106/54/54 108/57/57 98/56/56
f 108/57/57 99/36/36 98/56/56
f 102/39/39 84/38/38 107/55/55
f 84/38/38 83/58/58 107/55/55
f 107/55/55 83/58/58 108/57/57
f 83/58/58 82/59/59 108/57/57
f 108/57/57 82/59/59 99/36/36
f 82/59/59 9/34/34 99/36/36
f 97/53/53 94/60/60 12/45/45
f 98/56/56 109/61/61 97/53/53
f 99/36/36 110/62/62 98/56/56
f 97/53/53 109/61/61 94/60/60
f 109/61/61 95/63/63 94/60/60
f 98/56/56 110/62/62 109/61/61
f 110/62/62 111/64/64 109/61/61
f 109/61/61 111/64/64 95/63/63
f 111/64/64 96/33/33 95/63/63
f 99/36/36 81/35/35 110/62/62
f 81/35/35 80/65/65 110/62/62
f 110/62/62 80/65/65 111/64/64
f 80/65/65 79/66/66 111/64/64
f 111/64/64 79/66/66 96/33/33
f 79/66/66 8/31/31 96/33/33
f 94/60/60 88/67/67 12/45/45
f 95/63/63 112/68/68 94/60/60
f 96/33/33 113/69/69 95/63/63
f 94/60/60 112/70/68 88/67/67
f 112/70/68 89/71/70 88/67/67
f 95/63/63 113/69/69 112/68/68
f 113/72/69 114/73/71 112/70/68
f 112/70/68 114/73/71 89/71/70
f 114/73/71 90/30/30 89/71/70
f 96/33/33 78/32/32 113/69/69
f 78/32/32 77/74/72 113/69/69
f 113/72/69 77/75/72 114/73/71
f 77/75/72 76/76/73 114/73/71
f 114/73/71 76/76/73 90/30/30
f 76/76/73 7/28/28 90/30/30
f 88/67/67 93/43/43 12/45/45
f 89/71/70 115/77/74 88/67/67
f 90/30/30 116/78/75 89/71/70
f 88/67/67 115/77/74 93/43/43
f 115/77/74 92/46/46 93/43/43
f 89/71/70 116/78/75 115/77/74
f 116/78/75 117/79/76 115/77/74
f 115/77/74 117/79/76 92/46/46
f 117/79/76 91/42/42 92/46/46
f 90/30/30 75/29/29 116/78/75
f 75/29/29 74/80/77 116/78/75
f 116/78/75 74/80/77 117/79/76
f 74/80/77 73/81/78 117/79/76
f 117/79/76 73/81/78 91/42/42
f 73/81/78 11/40/40 91/42/42
f 48/82/79 87/41/41 11/40/40
f 47/83/80 118/84/81 48/82/79
f 46/27/27 119/85/82 47/83/80
f 48/82/79 118/84/81 87/41/41
f 118/84/81 86/51/51 87/41/41
f 47/83/80 119/85/82 118/84/81
f 119/85/82 120/86/83 118/84/81
f 118/84/81 120/86/83 86/51/51
f 120/86/83 85/52/52 86/51/51
f 46/27/27 69/22/22 119/85/82
f 69/22/22 68/87/84 119/85/82
f 119/85/82 68/87/84 120/86/83
f 68/87/84 67/88/85 120/86/83
f 120/86/83 67/88/85 85/52/52
f 67/88/85 10/37/37 85/52/52
f 72/89/86 84/38/38 10/37/37
f 71/90/87 121/91/88 72/89/86
f 70/26/26 122/92/89 71/90/87
f 72/89/86 121/91/88 84/38/38
f 121/91/88 83/58/58 84/38/38
f 71/90/87 122/92/89 121/91/88
f 122/92/89 123/93/90 121/91/88
f 121/91/88 123/93/90 83/58/58
f 123/93/90 82/59/59 83/58/58
f 70/26/26 63/19/19 122/92/89
f 63/19/19 62/94/91 122/92/89
f 122/92/89 62/94/91 123/93/90
f 62/94/91 61/95/92 123/93/90
f 123/93/90 61/95/92 82/59/59
f 61/95/92 9/34/34 82/59/59
f 66/96/93 81/35/35 9/34/34
f 65/97/94 124/98/95 66/96/93
f 64/25/25 125/99/96 65/97/94
f 66/96/93 124/98/95 81/35/35
f 124/98/95 80/65/65 81/35/35
f 65/97/94 125/99/96 124/98/95
f 125/99/96 126/100/97 124/98/95
f 124/98/95 126/100/97 80/65/65
f 126/100/97 79/66/66 80/65/65
f 64/25/25 57/16/16 125/99/96
f 57/16/16 56/101/98 125/99/96
f 125/99/96 56/101/98 126/100/97
f 56/101/98 55/102/99 126/100/97
f 126/100/97 55/102/99 79/66/66
f 55/102/99 8/31/31 79/66/66
f 60/103/100 78/32/32 8/31/31
f 59/104/101 127/105/102 60/103/100
f 58/24/24 128/106/103 59/107/101
f 60/103/100 127/105/102 78/32/32
f 127/105/102 77/74/72 78/32/32
f 59/107/101 128/106/103 127/108/102
f 128/106/103 129/109/104 127/108/102
f 127/108/102 129/109/104 77/75/72
f 129/109/104 76/76/73 77/75/72
f 58/24/24 51/13/13 128/106/103
f 51/13/13 50/110/105 128/106/103
f 128/106/103 50/110/105 129/109/104
f 50/110/105 49/111/106 129/109/104
f 129/109/104 49/111/106 76/76/73
f 49/111/106 7/28/28 76/76/73
f 54/112/107 75/29/29 7/28/28
f 53/113/108 130/114/109 54/112/107
f 52/23/23 131/115/110 53/113/108
f 54/112/107 130/114/109 75/29/29
f 130/114/109 74/80/77 75/29/29
f 53/113/108 131/115/110 130/114/109
f 131/115/110 132/116/111 130/114/109
f 130/114/109 132/116/111 74/80/77
f 132/116/111 73/81/78 74/80/77
f 52/23/23 45/10/10 131/115/110
f 45/10/10 44/117/112 131/115/110
f 131/115/110 44/117/112 132/116/111
f 44/117/112 43/118/113 132/116/111
f 132/116/111 43/118/113 73/81/78
f 43/118/113 11/40/40 73/81/78
f 67/88/85 72/89/86 10/37/37
f 68/87/84 133/119/114 67/88/85
f 69/22/22 134/120/115 68/87/84
f 67/88/85 133/119/114 72/89/86
f 133/119/114 71/90/87 72/89/86
f 68/87/84 134/120/115 133/119/114
f 134/120/115 135/121/116 133/119/114
f 133/119/114 135/121/116 71/90/87
f 135/121/116 70/26/26 71/90/87
f 69/22/22 42/21/21 134/120/115
f 42/21/21 41/122/117 134/120/115
f 134/120/115 41/122/117 135/121/116
f 41/122/117 40/123/118 135/121/116
f 135/121/116 40/123/118 70/26/26
f 40/123/118 5/17/17 70/26/26
f 61/95/92 66/96/93 9/34/34
f 62/94/91 136/124/119 61/95/92
f 63/19/19 137/125/120 62/94/91
f 61/95/92 136/124/119 66/96/93
f 136/124/119 65/97/94 66/96/93
f 62/94/91 137/125/120 136/124/119
f 137/125/120 138/126/121 136/124/119
f 136/124/119 138/126/121 65/97/94
f 138/126/121 64/25/25 65/97/94
f 63/19/19 39/18/18 137/125/120
f 39/18/18 38/127/122 137/125/120
f 137/125/120 38/127/122 138/126/121
f 38/127/122 37/128/123 138/126/121
f 138/126/121 37/128/123 64/25/25
f 37/128/123 4/14/14 64/25/25
f 55/102/99 60/103/100 8/31/31
f 56/101/98 139/129/124 55/102/99
f 57/16/16 140/130/125 56/101/98
f 55/102/99 139/129/124 60/103/100
f 139/129/124 59/104/101 60/103/100
f 56/101/98 140/130/125 139/129/124
f 140/130/125 141/131/126 139/129/124
f 139/129/124 141/131/126 59/104/101
f 141/131/126 58/132/24 59/104/101
f 57/16/16 33/15/15 140/130/125
f 33/15/15 32/133/127 140/130/125
f 140/130/125 32/133/127 141/131/126
f 32/133/127 31/134/128 141/131/126
f 141/131/126 31/134/128 58/132/24
f 31/135/128 3/11/11 58/24/24
f 49/111/106 54/112/107 7/28/28
f 50/110/105 142/136/129 49/111/106
f 51/13/13 143/137/130 50/110/105
f 49/111/106 142/136/129 54/112/107
f 142/136/129 53/113/108 54/112/107
f 50/110/105 143/137/130 142/136/129
f 143/137/130 144/138/131 142/136/129
f 142/136/129 144/138/131 53/113/108
f 144/138/131 52/23/23 53/113/108
f 51/13/13 21/12/12 143/137/130
f 21/12/12 20/139/132 143/137/130
f 143/137/130 20/139/132 144/138/131
f 20/139/132 19/140/133 144/138/131
f 144/138/131 19/140/133 52/23/23
f 19/140/133 2/4/4 52/23/23
f 43/118/113 48/82/79 11/40/40
f 44/117/112 145/141/134 43/118/113
f 45/10/10 146/142/135 44/117/112
f 43/118/113 145/141/134 48/82/79
f 145/141/134 47/83/80 48/82/79
f 44/117/112 146/142/135 145/141/134
f 146/142/135 147/143/136 145/141/134
f 145/141/134 147/143/136 47/83/80
f 147/143/136 46/27/27 47/83/80
f 45/10/10 24/6/6 146/142/135
f 24/6/6 23/144/137 146/142/135
f 146/142/135 23/144/137 147/143/136
f 23/144/137 22/145/138 147/143/136
f 147/143/136 22/145/138 46/27/27
f 22/145/138 6/20/20 46/27/27
f 27/146/139 42/21/21 6/20/20
f 26/147/140 148/148/141 27/146/139
f 25/9/9 149/149/142 26/147/140
f 27/146/139 148/148/141 42/21/21
f 148/148/141 41/122/117 42/21/21
f 26/147/140 149/149/142 148/148/141
f 149/149/142 150/150/143 148/148/141
f 148/148/141 150/150/143 41/122/117
f 150/150/143 40/123/118 41/122/117
f 25/9/9 36/8/8 149/149/142
f 36/8/8 35/151/144 149/149/142
f 149/149/142 35/151/144 150/150/143
f 35/151/144 34/152/145 150/150/143
f 150/150/143 34/152/145 40/123/118
f 34/152/145 5/17/17 40/123/118
f 34/152/145 39/18/18 5/17/17
f 35/151/144 151/153/146 34/152/145
f 36/8/8 152/154/147 35/151/144
f 34/152/145 151/153/146 39/18/18
f 151/153/146 38/127/122 39/18/18
f 35/151/144 152/154/147 151/153/146
f 152/154/147 153/155/148 151/153/146
f 151/153/146 153/155/148 38/127/122
f 153/155/148 37/128/123 38/127/122
f 36/8/8 30/7/7 152/154/147
f 30/7/7 29/156/149 152/154/147
f 152/154/147 29/156/149 153/155/148
f 29/156/149 28/157/150 153/155/148
f 153/155/148 28/157/150 37/128/123
f 28/157/150 4/14/14 37/128/123
f 28/157/150 33/15/15 4/14/14
f 29/156/149 154/158/151 28/157/150
f 30/7/7 155/159/152 29/156/149
f 28/157/150 154/158/151 33/15/15
f 154/158/151 32/133/127 33/15/15
f 29/156/149 155/159/152 154/158/151
f 155/159/152 156/160/153 154/158/151
f 154/158/151 156/160/153 32/133/127
f 156/160/153 31/134/128 32/133/127
f 30/7/7 15/3/3 155/159/152
f 15/3/3 14/161/154 155/159/152
f 155/159/152 14/161/154 156/160/153
f 14/161/154 13/162/155 156/160/153
f 156/160/153 13/162/155 31/134/128
f 13/163/155 3/11/11 31/135/128
f 22/145/138 27/146/139 6/20/20
f 23/144/137 157/164/156 22/145/138
f 24/6/6 158/165/157 23/144/137
f 22/145/138 157/164/156 27/146/139
f 157/164/156 26/147/140 27/146/139
f 23/144/137 158/165/157 157/164/156
f 158/165/157 159/166/158 157/164/156
f 157/164/156 159/166/158 26/147/140
f 159/166/158 25/167/9 26/147/140
f 24/6/6 18/5/5 158/165/157
f 18/5/5 17/168/159 158/165/157
f 158/165/157 17/168/159 159/166/158
f 17/168/159 16/169/2 159/166/158
f 159/166/158 16/169/2 25/167/9
f 16/2/2 1/1/1 25/9/9
f 13/163/155 21/12/12 3/11/11
f 14/170/154 160/171/160 13/163/155
f 15/172/3 161/173/161 14/170/154
f 13/163/155 160/171/160 21/12/12
f 160/171/160 20/139/132 21/12/12
f 14/170/154 161/173/161 160/171/160
f 161/173/161 162/174/162 160/171/160
f 160/171/160 162/174/162 20/139/132
f 162/174/162 19/140/133 20/139/132
f 15/172/3 16/169/2 161/173/161
f 16/169/2 17/168/159 161/173/161
f 161/173/161 17/168/159 162/174/162
f 17/168/159 18/5/5 162/174/162
f 162/174/162 18/5/5 19/140/133
f 18/5/5 2/4/4 19/140/133
